# xmcd
#
# Track frame offsets: 
#        150
#        4575
#        24645
#        47022
#        62335
#        78735
#        97115
#        131557
#        141627
#        166337
#        173147
#        199055
#        213285
#        232357
#        236300
#        252512
#        274257
#
# Disc length: 3942 seconds
#
# Revision: 0
# Processed by: cddbd v1.5.2PL0 Copyright (c) Steve Scherf et al.
# Submitted via: ExactAudioCopy v0.95b4
#
DISCID=f60f6411
DTITLE=raheem devaughn - love behind the melody
DYEAR=2008
DGENRE=R&B
TTITLE0=hello love...
TTITLE1=woman
TTITLE2=love drug
TTITLE3=energy ft. big boi
TTITLE4=friday (shut the club down)
TTITLE5=customer
TTITLE6=mo better
TTITLE7=woman i desire ft. malik yusef
TTITLE8=desire
TTITLE9=midnight
TTITLE10=marathon ft. floetry
TTITLE11=butterflies
TTITLE12=she's not you
TTITLE13=can we try again?
TTITLE14=try again
TTITLE15=empty
TTITLE16=four letter word
EXTD=
EXTT0=
EXTT1=
EXTT2=
EXTT3=
EXTT4=
EXTT5=
EXTT6=
EXTT7=
EXTT8=
EXTT9=
EXTT10=
EXTT11=
EXTT12=
EXTT13=
EXTT14=
EXTT15=
EXTT16=
PLAYORDER=
